<?xml version="1.0" standalone="no"?>
<!DOCTYPE svg PUBLIC "-//W3C//DTD SVG 20010904//EN"
 "http://www.w3.org/TR/2001/REC-SVG-20010904/DTD/svg10.dtd">
<svg version="1.0" xmlns="http://www.w3.org/2000/svg"
 width="400.000000pt" height="400.000000pt" viewBox="0 0 400.000000 400.000000"
 preserveAspectRatio="xMidYMid meet">
<metadata>
Created by potrace 1.14, written by Peter Selinger 2001-2017
</metadata>
<g transform="translate(0.000000,400.000000) scale(0.100000,-0.100000)"
fill="#000000" stroke="none">
<path d="M0 2000 l0 -2000 2000 0 2000 0 0 2000 0 2000 -2000 0 -2000 0 0
-2000z m870 1230 l0 -70 -39 0 c-26 0 -41 -5 -45 -16 -14 -36 -7 -44 39 -44
l45 0 0 -59 0 -60 -42 -3 -43 -3 -3 -187 -2 -188 -75 0 -75 0 -2 188 c-3 185
-3 187 -25 190 -21 3 -23 9 -23 63 0 56 1 59 25 59 23 0 25 4 25 46 0 100 63
150 193 153 l47 1 0 -70z m810 -55 l0 -75 40 0 40 0 0 -59 0 -60 -37 -3 -38
-3 -3 -109 c-3 -119 3 -136 49 -136 29 0 29 0 29 -65 l0 -65 -60 0 c-93 0
-148 38 -169 115 -6 22 -11 91 -11 153 0 105 -1 112 -20 112 -18 0 -20 7 -20
60 0 53 2 60 20 60 18 0 20 7 20 68 0 38 3 72 7 75 3 4 39 7 80 7 l73 0 0 -75z
m-570 -227 c0 -192 5 -208 65 -208 55 0 60 15 63 207 l4 173 74 0 74 0 0 -260
0 -260 -75 0 c-62 0 -75 3 -75 16 0 12 -5 14 -17 9 -118 -50 -189 -37 -243 43
-24 34 -25 41 -28 244 l-3 208 80 0 81 0 0 -172z m910 -2 c0 -192 4 -206 60
-206 56 0 60 14 60 206 l0 174 80 0 80 0 0 -260 0 -260 -75 0 c-62 0 -75 3
-75 16 0 12 -5 14 -17 9 -95 -40 -141 -41 -202 -4 -61 37 -71 78 -71 302 l0
197 80 0 80 0 0 -174z m551 162 c1 -7 1 -16 0 -20 -2 -12 6 -10 41 12 58 35
198 19 198 -23 0 -7 -24 -37 -54 -66 -47 -46 -56 -52 -74 -42 -33 18 -69 13
-86 -11 -13 -18 -16 -55 -16 -190 l0 -168 -80 0 -80 0 0 260 0 260 75 0 c53 0
75 -4 76 -12z m595 -9 c80 -38 123 -117 124 -226 l0 -63 -155 0 c-133 0 -155
-2 -155 -15 0 -9 11 -27 25 -40 19 -20 34 -25 73 -25 27 0 57 6 68 15 29 22
40 19 83 -27 39 -40 40 -43 23 -61 -37 -42 -93 -61 -178 -61 -106 0 -165 28
-208 98 -26 41 -31 60 -34 134 -5 102 7 154 47 209 58 81 187 108 287 62z
m-2296 -784 c0 -62 -1 -65 -24 -65 -42 0 -56 -11 -56 -41 0 -27 3 -29 40 -29
l40 0 0 -60 0 -60 -40 0 -40 0 -2 -187 -3 -188 -77 -3 -78 -3 0 191 0 190 -25
0 c-24 0 -25 3 -25 60 0 57 1 60 25 60 23 0 25 4 25 43 0 96 69 157 178 157
l62 0 0 -65z m389 -135 c86 -44 115 -111 109 -259 -4 -116 -24 -162 -89 -206
-35 -24 -57 -30 -111 -33 -109 -7 -182 31 -219 113 -27 58 -26 233 0 291 22
48 75 94 128 111 49 16 134 8 182 -17z m542 20 c20 -6 43 -18 52 -28 16 -17
13 -22 -41 -75 -57 -56 -59 -57 -86 -43 -33 17 -62 11 -81 -17 -12 -17 -15
-58 -15 -190 l0 -168 -77 3 -78 3 -3 258 -2 257 80 0 c75 0 80 -1 80 -22 0
-19 2 -20 18 -6 38 34 95 44 153 28z m69 -769 l0 -70 43 -3 42 -3 0 -60 0 -60
-42 -3 -43 -3 0 -100 c0 -120 8 -139 55 -139 l35 0 0 -65 0 -65 -67 0 c-79 0
-121 20 -153 72 -17 29 -20 51 -20 166 l0 132 -25 0 c-24 0 -25 2 -25 65 0 47
4 65 13 64 34 -4 37 2 37 71 l0 70 75 0 75 0 0 -69z m-1090 -71 c0 -11 1 -20
3 -20 1 0 20 9 42 20 79 40 165 19 219 -53 19 -26 21 -44 24 -238 l3 -209 -75
0 -75 0 -3 169 c-3 149 -5 171 -22 190 -24 26 -60 27 -86 1 -18 -18 -20 -33
-20 -190 l0 -170 -80 0 -80 0 0 253 c0 140 3 257 7 260 3 4 37 7 75 7 61 0 68
-2 68 -20z m727 -8 c75 -39 83 -68 83 -297 l0 -195 -75 0 c-69 0 -75 2 -75 20
0 20 -1 20 -31 -2 -24 -18 -43 -23 -87 -22 -108 1 -162 55 -162 162 0 54 4 65
31 96 37 43 79 56 177 56 l72 0 -6 28 c-4 15 -13 33 -22 40 -23 17 -79 15
-114 -5 l-29 -18 -46 48 c-51 55 -49 66 22 99 57 27 202 21 262 -10z m703
-154 c3 -97 7 -178 10 -181 42 -37 100 -23 111 28 4 17 7 99 8 183 l1 152 75
0 75 0 0 -260 0 -260 -75 0 c-60 0 -75 3 -75 15 0 19 0 19 -40 -1 -88 -44
-185 -16 -227 65 -22 42 -23 55 -23 243 l0 199 78 -3 77 -3 5 -177z m557 163
c5 -19 6 -19 44 1 48 25 132 22 174 -6 l28 -18 -60 -60 c-53 -53 -63 -59 -81
-49 -31 16 -60 13 -82 -9 -18 -18 -20 -33 -20 -190 l0 -170 -80 0 -80 0 0 253
c0 140 3 257 7 260 3 4 38 7 76 7 60 0 70 -3 74 -19z m574 5 c91 -38 139 -117
139 -228 l0 -68 -148 0 c-82 0 -151 -3 -155 -6 -9 -10 20 -61 38 -68 30 -11
110 -6 129 9 11 8 23 15 27 15 11 0 89 -77 89 -88 0 -15 -72 -59 -116 -71 -54
-15 -111 -14 -172 4 -108 33 -159 127 -149 277 7 107 43 172 117 211 60 31
144 37 201 13z"/>
</g>
</svg>
