<?xml version="1.0" encoding="UTF-8"?>
<svg width="80px" height="80px" viewBox="0 0 80 80" version="1.1" xmlns="http://www.w3.org/2000/svg" xmlns:xlink="http://www.w3.org/1999/xlink">
    <!-- Generator: Sketch 53.1 (72631) - https://sketchapp.com -->
    <title>Future For Nature logo</title>
    <desc>Created with Sketch.</desc>
    <g id="Future-For-Nature-logo" stroke="none" stroke-width="1" fill="none" fill-rule="evenodd">
        <path d="M70.6646154,60.6358974 L64.0974359,60.6358974 C64.0974359,61.5333333 64.7887179,62.3497436 66.0338462,62.3497436 C67.1979487,62.3497436 67.7087179,62.0246154 68.2984615,61.4307692 L70.2974359,63.4287179 C69.1753846,64.5507692 68.0748718,65.1651282 66.0338462,65.1651282 C63.6071795,65.1651282 60.8123077,64.2882051 60.8123077,59.5538462 C60.8123077,55.9651282 62.854359,53.9476923 65.7292308,53.9476923 C68.9107692,53.9476923 70.6646154,56.2728205 70.6646154,59.1476923 L70.6646154,60.6358974 Z M58.1220513,57.5384615 C57.7969231,57.2092308 57.4923077,56.9641026 56.9189744,56.9641026 C56.4717949,56.9641026 55.5733333,57.2287179 55.5733333,58.4748718 L55.5733333,65.0441026 L52.2287179,65.0441026 L52.2287179,54.0687179 L55.4902564,54.0687179 L55.4902564,54.9661538 C55.9835897,54.4769231 56.9405128,53.9476923 58.0841026,53.9476923 C59.1641026,53.9476923 59.8974359,54.2102564 60.6512821,54.9661538 L58.1220513,57.5384615 Z M51.5138462,28.2112821 L48.1682051,28.2112821 L48.1682051,17.2389744 L51.4317949,17.2389744 L51.4317949,18.1353846 C51.9210256,17.6461538 52.8810256,17.1169231 54.0225641,17.1169231 C55.105641,17.1169231 55.8379487,17.3815385 56.5917949,18.1353846 L54.0635897,20.7046154 C53.7384615,20.3784615 53.4307692,20.1333333 52.8605128,20.1333333 C52.4102564,20.1333333 51.5138462,20.4 51.5138462,21.6441026 L51.5138462,28.2112821 Z M49.7015385,65.0441026 L46.44,65.0441026 L46.44,64.1435897 C45.7651282,64.8174359 44.7661538,65.1651282 43.8892308,65.1651282 C42.8482051,65.1651282 42.0112821,64.8174359 41.4205128,64.225641 C40.4820513,63.2871795 40.3210256,62.2451282 40.3210256,61.0841026 L40.3210256,54.0687179 L43.6635897,54.0687179 L43.6635897,60.6358974 C43.6635897,61.8994872 44.5610256,62.1487179 45.0112821,62.1487179 C45.4605128,62.1487179 46.3569231,61.8994872 46.3569231,60.6358974 L46.3569231,54.0687179 L49.7015385,54.0687179 L49.7015385,65.0441026 Z M36.2584615,24.2553846 L36.2584615,17.2389744 L39.6041026,17.2389744 L39.6041026,23.8051282 C39.6041026,25.0697436 40.5015385,25.3138462 40.9507692,25.3138462 C41.4010256,25.3138462 42.2974359,25.0697436 42.2974359,23.8051282 L42.2974359,17.2389744 L45.6420513,17.2389744 L45.6420513,28.2112821 L42.3794872,28.2112821 L42.3794872,27.3138462 C41.705641,27.9866667 40.7066667,28.3333333 39.8276923,28.3333333 C38.7887179,28.3333333 37.9507692,27.9866667 37.3589744,27.3958974 C36.4215385,26.4564103 36.2584615,25.4164103 36.2584615,24.2553846 Z M38.3405128,57.0676923 L36.6071795,57.0676923 L36.6071795,61.5548718 C36.6071795,61.9825641 36.8307692,62.2287179 37.2810256,62.2287179 L38.3405128,62.2287179 L38.3405128,65.0441026 L36.6676923,65.0441026 C34.2420513,65.0441026 33.2625641,63.3076923 33.2625641,61.7979487 L33.2625641,57.0676923 L32.2646154,57.0676923 L32.2646154,54.4974359 L33.2625641,54.4974359 L33.2625641,51.3569231 L36.6071795,51.3569231 L36.6071795,54.4974359 L38.3405128,54.4974359 L38.3405128,57.0676923 Z M31.4666667,47.5979487 L28.12,47.5979487 L28.12,36.6266667 L31.3866667,36.6266667 L31.3866667,37.5251282 C31.8748718,37.0348718 32.8328205,36.505641 33.9753846,36.505641 C35.054359,36.505641 35.7897436,36.7702564 36.5446154,37.5251282 L34.0153846,40.0933333 C33.6882051,39.7682051 33.3835897,39.5230769 32.8133333,39.5230769 C32.3620513,39.5230769 31.4666667,39.7876923 31.4666667,41.0328205 L31.4666667,47.5979487 Z M30.6738462,65.0441026 L27.4102564,65.0441026 L27.4102564,64.1435897 C26.7364103,64.8174359 26.1251282,65.1446154 24.9620513,65.1446154 C23.8625641,65.1446154 22.9446154,64.7774359 22.3333333,64.1661538 C21.6994872,63.5323077 21.374359,62.6164103 21.374359,61.5958974 C21.374359,59.9405128 22.4964103,58.4112821 25.105641,58.4112821 L27.3282051,58.4112821 L27.3282051,58.1271795 C27.3282051,57.1282051 26.84,56.76 25.6769231,56.76 C24.8194872,56.76 24.454359,56.9641026 23.9230769,57.4953846 L21.8420513,55.4164103 C22.9651282,54.2953846 23.9835897,53.9476923 25.84,53.9476923 C28.9805128,53.9476923 30.6738462,55.2523077 30.6738462,57.9261538 L30.6738462,65.0441026 Z M16.5189744,42.1128205 C16.5189744,39.9733333 16.8030769,38.9117949 17.7210256,37.9128205 C18.3753846,37.2194872 19.4748718,36.505641 21.2482051,36.505641 C23.025641,36.505641 24.1271795,37.2194872 24.7794872,37.9128205 C25.6953846,38.9117949 25.9815385,39.9733333 25.9815385,42.1128205 C25.9815385,44.2748718 25.6953846,45.3148718 24.7794872,46.3138462 C24.1271795,47.0082051 23.025641,47.7230769 21.2482051,47.7230769 C19.4748718,47.7230769 18.3753846,47.0082051 17.7210256,46.3138462 C16.8030769,45.3148718 16.5189744,44.2748718 16.5189744,42.1128205 Z M19.6615385,65.0441026 L16.3169231,65.0441026 L16.3169231,58.4748718 C16.3169231,57.2092308 15.4205128,56.9641026 14.9723077,56.9641026 C14.5220513,56.9641026 13.625641,57.2092308 13.625641,58.4748718 L13.625641,65.0441026 L10.28,65.0441026 L10.28,54.0687179 L13.5435897,54.0687179 L13.5435897,54.9661538 C14.2174359,54.2953846 15.2174359,53.9476923 16.0933333,53.9476923 C17.1323077,53.9476923 17.9702564,54.2953846 18.5610256,54.8830769 C19.5005128,55.8225641 19.6615385,56.8635897 19.6615385,58.0235897 L19.6615385,65.0441026 Z M9.2625641,39.625641 L9.2625641,37.0553846 L10.2615385,37.0553846 L10.2615385,36.0964103 C10.2615385,34.5887179 11.24,32.854359 13.6666667,32.854359 L15.4420513,32.854359 L15.4420513,35.6697436 L14.2769231,35.6697436 C13.8297436,35.6697436 13.6051282,35.9138462 13.6051282,36.3415385 L13.6051282,37.0553846 L15.4420513,37.0553846 L15.4420513,39.625641 L13.6051282,39.625641 L13.6051282,47.5979487 L10.2615385,47.5979487 L10.2615385,39.625641 L9.2625641,39.625641 Z M9.19692308,17.6666667 L10.1979487,17.6666667 L10.1979487,16.7076923 C10.1979487,15.1989744 11.1764103,13.465641 13.6030769,13.465641 L15.3784615,13.465641 L15.3784615,16.28 L14.214359,16.28 C13.7661538,16.28 13.5425641,16.5241026 13.5425641,16.9528205 L13.5425641,17.6666667 L15.3784615,17.6666667 L15.3784615,20.2369231 L13.5425641,20.2369231 L13.5425641,28.2112821 L10.1979487,28.2112821 L10.1979487,20.2369231 L9.19692308,20.2369231 L9.19692308,17.6666667 Z M17.0492308,17.2389744 L20.3928205,17.2389744 L20.3928205,23.8051282 C20.3928205,25.0697436 21.2912821,25.3138462 21.7394872,25.3138462 C22.1876923,25.3138462 23.0861538,25.0697436 23.0861538,23.8051282 L23.0861538,17.2389744 L26.4297436,17.2389744 L26.4297436,28.2112821 L23.1661538,28.2112821 L23.1661538,27.3138462 C22.494359,27.9866667 21.4953846,28.3333333 20.6174359,28.3333333 C19.5774359,28.3333333 18.7425641,27.9866667 18.1517949,27.3958974 C17.2102564,26.4564103 17.0492308,25.4164103 17.0492308,24.2553846 L17.0492308,17.2389744 Z M28.2030769,17.6666667 L29.2020513,17.6666667 L29.2020513,14.5261538 L32.5466667,14.5261538 L32.5466667,17.6666667 L34.2820513,17.6666667 L34.2820513,20.2369231 L32.5466667,20.2369231 L32.5466667,24.7230769 C32.5466667,25.1517949 32.7723077,25.3958974 33.2205128,25.3958974 L34.2820513,25.3958974 L34.2820513,28.2112821 L32.6092308,28.2112821 C30.1835897,28.2112821 29.2020513,26.4769231 29.2020513,24.9682051 L29.2020513,20.2369231 L28.2030769,20.2369231 L28.2030769,17.6666667 Z M66.6041026,22.3169231 L66.6041026,23.8051282 L60.0369231,23.8051282 C60.0369231,24.7025641 60.7302564,25.5179487 61.9753846,25.5179487 C63.1374359,25.5179487 63.6461538,25.1917949 64.2389744,24.6 L66.2379487,26.6 C65.1148718,27.7210256 64.0153846,28.3333333 61.9753846,28.3333333 C59.5466667,28.3333333 56.7538462,27.4564103 56.7538462,22.7251282 C56.7538462,19.134359 58.7917949,17.1169231 61.6697436,17.1169231 C64.8502564,17.1169231 66.6041026,19.4410256 66.6041026,22.3169231 Z M2.27373675e-13,80 L80,80 L80,9.9475983e-14 L2.27373675e-13,9.9475983e-14 L2.27373675e-13,80 Z" id="Fill-1" fill="#1D1E1C"></path>
    </g>
</svg>